<svg xmlns="http://www.w3.org/2000/svg" xmlns:xlink="http://www.w3.org/1999/xlink" width="1200" zoomAndPan="magnify" viewBox="0 0 900 299.999988" height="400" preserveAspectRatio="xMidYMid meet" version="1.0"><defs><g/><clipPath id="532cabe81d"><path d="M 0 34.917969 L 234.75 34.917969 L 234.75 269.667969 L 0 269.667969 Z M 0 34.917969 " clip-rule="nonzero"/></clipPath><clipPath id="002f4dd929"><rect x="0" width="644" y="0" height="157"/></clipPath></defs><g clip-path="url(#532cabe81d)"><path fill="#ffffff" d="M 83.136719 235.554688 L 34.429688 235.554688 L 34.429688 186.847656 L 0 152.417969 L 34.429688 118.054688 L 34.429688 69.347656 L 83.136719 69.347656 L 117.5 34.917969 L 151.929688 69.347656 L 200.636719 69.347656 L 200.636719 118.054688 L 235.066406 152.417969 L 200.636719 186.847656 L 200.636719 235.554688 L 151.929688 235.554688 L 117.5 269.984375 Z M 83.136719 235.554688 " fill-opacity="1" fill-rule="nonzero"/></g><path fill="#1a4862" d="M 86.605469 227.011719 L 42.96875 227.011719 L 42.96875 183.375 L 12.011719 152.417969 L 42.96875 121.523438 L 42.96875 77.886719 L 86.605469 77.886719 L 117.5 46.929688 L 148.457031 77.886719 L 192.09375 77.886719 L 192.09375 121.523438 L 223.054688 152.417969 L 192.09375 183.375 L 192.09375 227.011719 L 148.457031 227.011719 L 117.5 257.972656 Z M 86.605469 227.011719 " fill-opacity="1" fill-rule="nonzero"/><path fill="#ffffff" d="M 88.941406 221.476562 L 48.507812 221.476562 L 48.507812 181.042969 L 19.882812 152.417969 L 48.507812 123.859375 L 48.507812 83.425781 L 88.941406 83.425781 L 117.5 54.804688 L 146.125 83.425781 L 186.558594 83.425781 L 186.558594 123.859375 L 215.179688 152.417969 L 186.558594 181.042969 L 186.558594 221.476562 L 146.125 221.476562 L 117.5 250.101562 Z M 88.941406 221.476562 " fill-opacity="1" fill-rule="nonzero"/><path fill="#1a4862" d="M 91.945312 213.269531 L 55.714844 213.269531 L 55.714844 177.039062 L 30.09375 151.417969 L 55.714844 125.863281 L 55.714844 89.632812 L 91.945312 89.632812 L 117.5 64.011719 L 143.121094 89.632812 L 179.351562 89.632812 L 179.351562 125.863281 L 204.972656 151.417969 L 179.351562 177.039062 L 179.351562 213.269531 L 143.121094 213.269531 L 117.5 238.890625 Z M 91.945312 213.269531 " fill-opacity="1" fill-rule="nonzero"/><path fill="#ffffff" d="M 93.945312 208.398438 L 60.917969 208.398438 L 60.917969 175.371094 L 37.566406 152.019531 L 60.917969 128.664062 L 60.917969 95.636719 L 93.945312 95.636719 L 117.300781 72.28125 L 140.652344 95.636719 L 173.613281 95.636719 L 173.613281 128.664062 L 196.964844 152.019531 L 173.613281 175.371094 L 173.613281 208.398438 L 140.652344 208.398438 L 117.300781 231.753906 Z M 93.945312 208.398438 " fill-opacity="1" fill-rule="nonzero"/><path fill="#1a4862" d="M 168.273438 173.503906 L 189.292969 152.417969 L 168.273438 131.398438 L 168.273438 101.707031 L 138.585938 101.707031 L 117.5 80.691406 L 96.480469 101.707031 L 66.789062 101.707031 L 66.789062 131.398438 L 45.769531 152.417969 L 66.789062 173.503906 L 66.789062 203.195312 L 96.480469 203.195312 L 117.5 224.210938 L 138.585938 203.195312 L 168.273438 203.195312 Z M 168.273438 173.503906 " fill-opacity="1" fill-rule="nonzero"/><path fill="#ffffff" d="M 106.691406 184.175781 C 104.886719 182.710938 103.152344 182.644531 101.484375 184.246094 C 99.550781 186.046875 97.949219 188.046875 97.015625 190.449219 C 95.949219 193.183594 95.214844 195.988281 94.414062 198.855469 C 93.878906 200.726562 93.480469 202.59375 93.144531 204.0625 C 93.078125 206.261719 94.347656 207.398438 95.949219 206.996094 C 96.480469 206.863281 97.082031 206.464844 97.414062 205.996094 C 99.953125 202.59375 102.554688 199.257812 104.820312 195.722656 C 106.15625 193.585938 107.023438 191.183594 108.023438 188.847656 C 108.691406 186.980469 108.292969 185.511719 106.691406 184.175781 Z M 138.382812 190.449219 C 137.449219 188.046875 135.847656 185.980469 133.914062 184.246094 C 132.246094 182.644531 130.511719 182.710938 128.707031 184.175781 C 127.105469 185.445312 126.707031 186.980469 127.441406 188.78125 C 128.375 191.117188 129.242188 193.519531 130.578125 195.65625 C 132.84375 199.191406 135.445312 202.527344 137.917969 205.929688 C 138.25 206.394531 138.851562 206.796875 139.382812 206.929688 C 140.984375 207.332031 142.1875 206.195312 142.121094 203.996094 C 141.785156 202.527344 141.386719 200.660156 140.851562 198.789062 C 140.183594 196.054688 139.449219 193.183594 138.382812 190.449219 Z M 153.261719 181.710938 C 150.460938 178.773438 148.324219 175.304688 145.789062 172.167969 C 142.519531 168.03125 139.050781 164.027344 135.714844 159.957031 C 135.445312 159.691406 135.246094 159.355469 134.78125 158.824219 C 135.445312 158.757812 135.847656 158.757812 136.246094 158.757812 C 140.316406 158.757812 144.453125 159.089844 148.523438 158.757812 C 153.328125 158.355469 158.066406 157.355469 162.804688 156.488281 C 164.671875 156.152344 166.539062 155.621094 168.34375 155.152344 C 169.34375 154.886719 170.210938 154.351562 170.675781 153.417969 C 170.875 153.085938 170.945312 152.75 170.875 152.550781 C 170.945312 152.351562 170.875 152.019531 170.675781 151.683594 C 170.210938 150.683594 169.34375 150.148438 168.34375 149.949219 C 166.472656 149.484375 164.605469 148.949219 162.738281 148.613281 C 157.933594 147.8125 153.195312 146.8125 148.324219 146.34375 C 144.253906 146.011719 140.050781 146.28125 135.980469 146.34375 C 135.582031 146.34375 135.179688 146.28125 134.511719 146.28125 C 134.980469 145.746094 135.179688 145.410156 135.445312 145.144531 C 138.851562 141.074219 142.253906 137.070312 145.589844 132.933594 C 148.125 129.800781 150.257812 126.328125 153.128906 123.394531 C 154.796875 121.660156 156.332031 119.722656 157.664062 117.722656 C 158.867188 115.988281 158.464844 114.1875 157.066406 112.785156 C 155.730469 111.449219 153.863281 111.117188 152.195312 112.117188 C 150.996094 112.851562 149.925781 113.785156 148.792969 114.652344 C 145.992188 116.988281 143.253906 119.457031 140.316406 121.660156 C 134.847656 125.726562 129.375 129.800781 124.503906 134.601562 C 124.304688 134.804688 124.039062 135.003906 123.773438 135.136719 C 123.703125 135.070312 123.570312 135.070312 123.503906 135.003906 L 123.503906 133.734375 C 123.570312 132.601562 123.703125 131.46875 123.773438 130.398438 C 123.90625 125.863281 123.570312 121.390625 122.972656 116.855469 C 122.304688 111.515625 121.035156 106.378906 119.699219 101.242188 C 119.5 100.441406 118.699219 99.707031 117.964844 99.171875 C 117.765625 98.972656 117.5 98.972656 117.367188 98.972656 C 117.164062 98.972656 116.964844 99.039062 116.765625 99.171875 C 116.03125 99.707031 115.230469 100.441406 115.03125 101.242188 C 113.695312 106.378906 112.496094 111.582031 111.828125 116.855469 C 111.226562 121.390625 110.960938 125.863281 111.027344 130.398438 C 111.027344 131.53125 111.226562 132.667969 111.292969 133.734375 L 111.292969 135.003906 C 111.226562 135.070312 111.09375 135.070312 111.027344 135.136719 C 110.761719 134.9375 110.492188 134.804688 110.292969 134.601562 C 105.421875 129.800781 100.015625 125.796875 94.613281 121.660156 C 91.675781 119.457031 89.007812 116.988281 86.207031 114.652344 C 85.140625 113.785156 84.070312 112.851562 82.871094 112.117188 C 81.203125 111.117188 79.335938 111.449219 78 112.785156 C 76.597656 114.1875 76.265625 115.988281 77.398438 117.722656 C 78.734375 119.722656 80.199219 121.660156 81.867188 123.394531 C 84.671875 126.328125 86.804688 129.800781 89.34375 132.933594 C 92.609375 137.070312 96.082031 141.074219 99.417969 145.144531 C 99.683594 145.410156 99.882812 145.746094 100.351562 146.28125 C 99.683594 146.34375 99.285156 146.34375 98.882812 146.34375 C 94.8125 146.34375 90.675781 146.011719 86.605469 146.34375 C 81.800781 146.746094 77.066406 147.746094 72.328125 148.613281 C 70.460938 148.949219 68.589844 149.484375 66.789062 149.949219 C 65.789062 150.214844 64.921875 150.75 64.453125 151.683594 C 64.253906 152.019531 64.1875 152.351562 64.253906 152.550781 C 64.1875 152.75 64.253906 153.085938 64.453125 153.417969 C 64.921875 154.417969 65.789062 154.953125 66.789062 155.152344 C 68.65625 155.621094 70.527344 156.152344 72.394531 156.488281 C 77.199219 157.289062 81.9375 158.289062 86.804688 158.757812 C 90.875 159.089844 95.082031 158.824219 99.152344 158.757812 C 99.550781 158.757812 99.953125 158.824219 100.617188 158.824219 C 100.152344 159.355469 99.953125 159.691406 99.683594 159.957031 C 96.28125 164.027344 92.878906 168.03125 89.542969 172.167969 C 87.007812 175.304688 84.871094 178.773438 82 181.710938 C 80.335938 183.445312 78.800781 185.378906 77.464844 187.378906 C 76.265625 189.117188 76.664062 190.917969 78.066406 192.320312 C 79.398438 193.652344 81.269531 193.984375 82.9375 192.984375 C 84.136719 192.25 85.203125 191.316406 86.339844 190.449219 C 89.140625 188.113281 91.878906 185.644531 94.8125 183.445312 C 100.285156 179.375 105.757812 175.304688 110.625 170.5 C 110.828125 170.300781 111.09375 170.101562 111.359375 169.964844 C 111.425781 170.03125 111.5625 170.03125 111.625 170.101562 L 111.625 171.367188 C 111.5625 172.503906 111.425781 173.636719 111.359375 174.703125 C 111.226562 179.242188 111.5625 183.710938 112.160156 188.25 C 112.828125 193.585938 114.097656 198.722656 115.429688 203.859375 C 115.628906 204.660156 116.429688 205.394531 117.164062 205.929688 C 117.367188 206.128906 117.632812 206.128906 117.765625 206.128906 C 117.964844 206.128906 118.167969 206.0625 118.367188 205.929688 C 119.101562 205.394531 119.902344 204.660156 120.101562 203.859375 C 121.433594 198.722656 122.636719 193.519531 123.304688 188.25 C 123.90625 183.710938 124.171875 179.242188 124.105469 174.703125 C 124.105469 173.570312 123.90625 172.433594 123.835938 171.367188 L 123.835938 170.101562 C 123.90625 170.03125 124.039062 170.03125 124.105469 169.964844 C 124.371094 170.164062 124.636719 170.300781 124.839844 170.5 C 129.710938 175.304688 135.113281 179.308594 140.519531 183.445312 C 143.453125 185.644531 146.125 188.113281 148.925781 190.449219 C 149.992188 191.316406 151.058594 192.25 152.261719 192.984375 C 153.929688 193.984375 155.796875 193.652344 157.132812 192.320312 C 158.535156 190.917969 158.867188 189.117188 157.734375 187.378906 C 156.464844 185.378906 154.929688 183.445312 153.261719 181.710938 Z M 86.804688 164.496094 C 85.140625 162.160156 84.339844 161.425781 82 162.292969 C 79.46875 163.160156 76.863281 164.160156 74.59375 165.628906 C 70.992188 167.964844 67.589844 170.632812 64.1875 173.234375 C 63.253906 173.96875 63.121094 174.96875 63.519531 175.96875 C 63.988281 176.972656 64.789062 177.371094 65.789062 177.304688 C 66.054688 177.304688 66.390625 177.304688 66.65625 177.238281 C 69.527344 176.503906 72.394531 175.769531 75.332031 175.105469 C 79.398438 174.035156 83.003906 172.167969 86.003906 169.097656 C 87.339844 167.5625 87.808594 165.828125 86.804688 164.496094 Z M 170.945312 173.234375 C 167.542969 170.632812 164.207031 167.964844 160.601562 165.628906 C 158.332031 164.160156 155.796875 163.160156 153.261719 162.292969 C 150.925781 161.492188 150.125 162.226562 148.457031 164.496094 C 147.457031 165.828125 147.925781 167.5625 149.324219 169.03125 C 152.261719 172.101562 155.863281 173.96875 159.867188 175.035156 C 162.738281 175.769531 165.605469 176.503906 168.410156 177.171875 C 168.675781 177.238281 169.007812 177.238281 169.277344 177.238281 C 170.34375 177.238281 171.078125 176.90625 171.542969 175.90625 C 172.011719 174.96875 171.878906 173.96875 170.945312 173.234375 Z M 148.257812 140.40625 C 149.925781 142.742188 150.726562 143.476562 153.0625 142.609375 C 155.597656 141.742188 158.199219 140.742188 160.46875 139.273438 C 164.070312 136.9375 167.472656 134.269531 170.875 131.667969 C 171.8125 130.933594 171.945312 129.933594 171.542969 128.929688 C 171.078125 127.929688 170.277344 127.53125 169.277344 127.597656 C 169.007812 127.597656 168.675781 127.597656 168.410156 127.664062 C 165.539062 128.398438 162.667969 129.132812 159.734375 129.800781 C 155.664062 130.867188 152.0625 132.734375 149.058594 135.804688 C 147.722656 137.339844 147.257812 139.074219 148.257812 140.40625 Z M 64.121094 131.667969 C 67.523438 134.269531 70.859375 136.9375 74.460938 139.273438 C 76.730469 140.742188 79.265625 141.742188 81.800781 142.609375 C 84.136719 143.410156 84.9375 142.675781 86.605469 140.40625 C 87.605469 139.074219 87.140625 137.339844 85.738281 135.871094 C 82.800781 132.800781 79.199219 130.933594 75.195312 129.867188 C 72.328125 129.132812 69.457031 128.398438 66.65625 127.730469 C 66.390625 127.664062 66.054688 127.664062 65.789062 127.664062 C 64.722656 127.664062 63.988281 127.996094 63.519531 129 C 63.054688 129.933594 63.1875 130.933594 64.121094 131.667969 Z M 96.679688 114.453125 C 97.613281 116.855469 99.214844 118.921875 101.152344 120.660156 C 102.820312 122.257812 104.554688 122.191406 106.355469 120.722656 C 107.957031 119.457031 108.359375 117.921875 107.625 116.121094 C 106.691406 113.785156 105.820312 111.382812 104.488281 109.25 C 102.21875 105.710938 99.617188 102.375 97.148438 98.972656 C 96.8125 98.503906 96.214844 98.105469 95.679688 97.972656 C 94.078125 97.570312 92.878906 98.707031 92.945312 100.90625 C 93.277344 102.375 93.679688 104.246094 94.210938 106.113281 C 94.878906 108.847656 95.613281 111.714844 96.679688 114.453125 Z M 128.375 120.722656 C 130.175781 122.191406 131.910156 122.257812 133.578125 120.660156 C 135.515625 118.855469 137.117188 116.855469 138.050781 114.453125 C 139.117188 111.714844 139.851562 108.914062 140.652344 106.046875 C 141.1875 104.175781 141.585938 102.308594 141.917969 100.839844 C 141.988281 98.640625 140.71875 97.503906 139.117188 97.90625 C 138.585938 98.039062 137.984375 98.441406 137.648438 98.90625 C 135.113281 102.308594 132.511719 105.644531 130.242188 109.179688 C 128.910156 111.316406 128.039062 113.71875 127.039062 116.054688 C 126.375 117.921875 126.773438 119.390625 128.375 120.722656 Z M 128.375 120.722656 " fill-opacity="1" fill-rule="nonzero"/><g transform="matrix(1, 0, 0, 1, 251, 71)"><g clip-path="url(#002f4dd929)"><g fill="#ffffff" fill-opacity="1"><g transform="translate(0.511582, 124.950621)"><g><path d="M 8.171875 0 L 8.171875 -94.34375 L 37.609375 -94.34375 L 52.9375 -50.90625 C 53.5625 -48.875 54.296875 -46.285156 55.140625 -43.140625 C 55.992188 -40.003906 56.851562 -36.640625 57.71875 -33.046875 C 58.582031 -29.460938 59.382812 -25.992188 60.125 -22.640625 C 60.863281 -19.285156 61.484375 -16.378906 61.984375 -13.921875 L 57.9375 -13.921875 C 58.4375 -16.328125 59.054688 -19.195312 59.796875 -22.53125 C 60.535156 -25.875 61.335938 -29.347656 62.203125 -32.953125 C 63.066406 -36.566406 63.910156 -39.953125 64.734375 -43.109375 C 65.554688 -46.273438 66.304688 -48.875 66.984375 -50.90625 L 82.0625 -94.34375 L 111.5625 -94.34375 L 111.5625 0 L 92.1875 0 L 92.1875 -44.578125 C 92.1875 -46.640625 92.21875 -49.191406 92.28125 -52.234375 C 92.34375 -55.273438 92.425781 -58.546875 92.53125 -62.046875 C 92.632812 -65.554688 92.726562 -69.09375 92.8125 -72.65625 C 92.90625 -76.21875 92.972656 -79.582031 93.015625 -82.75 L 94.46875 -82.75 C 93.625 -79.289062 92.703125 -75.722656 91.703125 -72.046875 C 90.710938 -68.378906 89.722656 -64.800781 88.734375 -61.3125 C 87.742188 -57.832031 86.816406 -54.644531 85.953125 -51.75 C 85.085938 -48.863281 84.335938 -46.472656 83.703125 -44.578125 L 68 0 L 51.796875 0 L 35.90625 -44.578125 C 35.226562 -46.472656 34.457031 -48.851562 33.59375 -51.71875 C 32.726562 -54.59375 31.785156 -57.757812 30.765625 -61.21875 C 29.753906 -64.6875 28.742188 -68.253906 27.734375 -71.921875 C 26.722656 -75.597656 25.75 -79.207031 24.8125 -82.75 L 26.59375 -82.75 C 26.632812 -79.71875 26.695312 -76.425781 26.78125 -72.875 C 26.863281 -69.332031 26.945312 -65.785156 27.03125 -62.234375 C 27.113281 -58.691406 27.195312 -55.390625 27.28125 -52.328125 C 27.375 -49.265625 27.421875 -46.679688 27.421875 -44.578125 L 27.421875 0 Z M 8.171875 0 "/></g></g></g><g fill="#ffffff" fill-opacity="1"><g transform="translate(120.239416, 124.950621)"><g><path d="M 8.171875 0 L 8.171875 -94.34375 L 45.203125 -94.34375 C 52.335938 -94.34375 58.4375 -93.078125 63.5 -90.546875 C 68.570312 -88.015625 72.445312 -84.445312 75.125 -79.84375 C 77.800781 -75.238281 79.140625 -69.8125 79.140625 -63.5625 C 79.140625 -57.363281 77.769531 -52.003906 75.03125 -47.484375 C 72.289062 -42.972656 68.34375 -39.515625 63.1875 -37.109375 C 58.039062 -34.703125 51.835938 -33.5 44.578125 -33.5 L 19.6875 -33.5 L 19.6875 -49.140625 L 42.234375 -49.140625 C 46.035156 -49.140625 49.203125 -49.695312 51.734375 -50.8125 C 54.265625 -51.925781 56.171875 -53.5625 57.453125 -55.71875 C 58.742188 -57.875 59.390625 -60.488281 59.390625 -63.5625 C 59.390625 -66.726562 58.742188 -69.398438 57.453125 -71.578125 C 56.171875 -73.753906 54.265625 -75.421875 51.734375 -76.578125 C 49.203125 -77.742188 46.015625 -78.328125 42.171875 -78.328125 L 27.546875 -78.328125 L 27.546875 0 Z M 60.90625 0 L 38.25 -42.859375 L 59.140625 -42.859375 L 82.25 0 Z M 60.90625 0 "/></g></g></g><g fill="#ffffff" fill-opacity="1"><g transform="translate(205.207556, 124.950621)"><g><path d="M 20.390625 1.203125 C 17.304688 1.203125 14.707031 0.160156 12.59375 -1.921875 C 10.488281 -4.015625 9.4375 -6.601562 9.4375 -9.6875 C 9.4375 -12.726562 10.488281 -15.289062 12.59375 -17.375 C 14.707031 -19.46875 17.304688 -20.515625 20.390625 -20.515625 C 23.429688 -20.515625 26.003906 -19.46875 28.109375 -17.375 C 30.222656 -15.289062 31.28125 -12.726562 31.28125 -9.6875 C 31.28125 -6.601562 30.222656 -4.015625 28.109375 -1.921875 C 26.003906 0.160156 23.429688 1.203125 20.390625 1.203125 Z M 20.390625 1.203125 "/></g></g></g><g fill="#ffffff" fill-opacity="1"><g transform="translate(245.918819, 124.950621)"><g><path d="M 49.515625 1.328125 C 41.109375 1.328125 33.582031 -0.585938 26.9375 -4.421875 C 20.289062 -8.265625 15.054688 -13.796875 11.234375 -21.015625 C 7.421875 -28.234375 5.515625 -36.929688 5.515625 -47.109375 C 5.515625 -57.328125 7.429688 -66.050781 11.265625 -73.28125 C 15.109375 -80.519531 20.363281 -86.0625 27.03125 -89.90625 C 33.707031 -93.75 41.203125 -95.671875 49.515625 -95.671875 C 54.921875 -95.671875 59.953125 -94.910156 64.609375 -93.390625 C 69.273438 -91.867188 73.398438 -89.648438 76.984375 -86.734375 C 80.578125 -83.828125 83.523438 -80.285156 85.828125 -76.109375 C 88.128906 -71.929688 89.640625 -67.179688 90.359375 -61.859375 L 70.78125 -61.859375 C 70.320312 -64.472656 69.476562 -66.8125 68.25 -68.875 C 67.03125 -70.945312 65.507812 -72.703125 63.6875 -74.140625 C 61.875 -75.578125 59.804688 -76.664062 57.484375 -77.40625 C 55.171875 -78.144531 52.640625 -78.515625 49.890625 -78.515625 C 44.910156 -78.515625 40.550781 -77.269531 36.8125 -74.78125 C 33.082031 -72.289062 30.203125 -68.710938 28.171875 -64.046875 C 26.148438 -59.378906 25.140625 -53.734375 25.140625 -47.109375 C 25.140625 -40.398438 26.160156 -34.710938 28.203125 -30.046875 C 30.253906 -25.378906 33.132812 -21.84375 36.84375 -19.4375 C 40.5625 -17.03125 44.910156 -15.828125 49.890625 -15.828125 C 52.597656 -15.828125 55.109375 -16.207031 57.421875 -16.96875 C 59.742188 -17.726562 61.820312 -18.8125 63.65625 -20.21875 C 65.5 -21.632812 67.03125 -23.378906 68.25 -25.453125 C 69.476562 -27.523438 70.34375 -29.867188 70.84375 -32.484375 L 90.421875 -32.484375 C 89.828125 -27.878906 88.460938 -23.550781 86.328125 -19.5 C 84.203125 -15.445312 81.375 -11.847656 77.84375 -8.703125 C 74.320312 -5.554688 70.1875 -3.097656 65.4375 -1.328125 C 60.6875 0.441406 55.378906 1.328125 49.515625 1.328125 Z M 49.515625 1.328125 "/></g></g></g><g fill="#ffffff" fill-opacity="1"><g transform="translate(341.460491, 124.950621)"><g><path d="M 8.171875 0 L 8.171875 -94.34375 L 27.546875 -94.34375 L 27.546875 -16.203125 L 68.765625 -16.203125 L 68.765625 0 Z M 8.171875 0 "/></g></g></g><g fill="#ffffff" fill-opacity="1"><g transform="translate(414.525493, 124.950621)"><g><path d="M 27.546875 -94.34375 L 27.546875 0 L 8.171875 0 L 8.171875 -94.34375 Z M 27.546875 -94.34375 "/></g></g></g><g fill="#ffffff" fill-opacity="1"><g transform="translate(450.29822, 124.950621)"><g><path d="M 8.171875 0 L 8.171875 -94.34375 L 29.5 -94.34375 L 59.453125 -46.46875 C 60.804688 -44.238281 62.253906 -41.738281 63.796875 -38.96875 C 65.335938 -36.207031 66.921875 -33.132812 68.546875 -29.75 C 70.171875 -26.375 71.785156 -22.703125 73.390625 -18.734375 L 71.296875 -17.609375 C 71.046875 -20.984375 70.8125 -24.617188 70.59375 -28.515625 C 70.382812 -32.421875 70.21875 -36.164062 70.09375 -39.75 C 69.96875 -43.34375 69.90625 -46.34375 69.90625 -48.75 L 69.90625 -94.34375 L 89.59375 -94.34375 L 89.59375 0 L 68.1875 0 L 41.03125 -43.375 C 39.21875 -46.320312 37.453125 -49.304688 35.734375 -52.328125 C 34.023438 -55.347656 32.234375 -58.710938 30.359375 -62.421875 C 28.484375 -66.140625 26.300781 -70.46875 23.8125 -75.40625 L 26.46875 -75.921875 C 26.71875 -71.316406 26.957031 -66.9375 27.1875 -62.78125 C 27.425781 -58.625 27.609375 -54.875 27.734375 -51.53125 C 27.859375 -48.195312 27.921875 -45.5 27.921875 -43.4375 L 27.921875 0 Z M 8.171875 0 "/></g></g></g><g fill="#ffffff" fill-opacity="1"><g transform="translate(548.055902, 124.950621)"><g><path d="M 49.515625 1.328125 C 41.109375 1.328125 33.582031 -0.585938 26.9375 -4.421875 C 20.289062 -8.265625 15.054688 -13.796875 11.234375 -21.015625 C 7.421875 -28.234375 5.515625 -36.929688 5.515625 -47.109375 C 5.515625 -57.328125 7.429688 -66.050781 11.265625 -73.28125 C 15.109375 -80.519531 20.363281 -86.0625 27.03125 -89.90625 C 33.707031 -93.75 41.203125 -95.671875 49.515625 -95.671875 C 54.921875 -95.671875 59.953125 -94.910156 64.609375 -93.390625 C 69.273438 -91.867188 73.398438 -89.648438 76.984375 -86.734375 C 80.578125 -83.828125 83.523438 -80.285156 85.828125 -76.109375 C 88.128906 -71.929688 89.640625 -67.179688 90.359375 -61.859375 L 70.78125 -61.859375 C 70.320312 -64.472656 69.476562 -66.8125 68.25 -68.875 C 67.03125 -70.945312 65.507812 -72.703125 63.6875 -74.140625 C 61.875 -75.578125 59.804688 -76.664062 57.484375 -77.40625 C 55.171875 -78.144531 52.640625 -78.515625 49.890625 -78.515625 C 44.910156 -78.515625 40.550781 -77.269531 36.8125 -74.78125 C 33.082031 -72.289062 30.203125 -68.710938 28.171875 -64.046875 C 26.148438 -59.378906 25.140625 -53.734375 25.140625 -47.109375 C 25.140625 -40.398438 26.160156 -34.710938 28.203125 -30.046875 C 30.253906 -25.378906 33.132812 -21.84375 36.84375 -19.4375 C 40.5625 -17.03125 44.910156 -15.828125 49.890625 -15.828125 C 52.597656 -15.828125 55.109375 -16.207031 57.421875 -16.96875 C 59.742188 -17.726562 61.820312 -18.8125 63.65625 -20.21875 C 65.5 -21.632812 67.03125 -23.378906 68.25 -25.453125 C 69.476562 -27.523438 70.34375 -29.867188 70.84375 -32.484375 L 90.421875 -32.484375 C 89.828125 -27.878906 88.460938 -23.550781 86.328125 -19.5 C 84.203125 -15.445312 81.375 -11.847656 77.84375 -8.703125 C 74.320312 -5.554688 70.1875 -3.097656 65.4375 -1.328125 C 60.6875 0.441406 55.378906 1.328125 49.515625 1.328125 Z M 49.515625 1.328125 "/></g></g></g></g></g></svg>