<svg xmlns="http://www.w3.org/2000/svg" xmlns:xlink="http://www.w3.org/1999/xlink" width="1000" zoomAndPan="magnify" viewBox="0 0 750 749.999995" height="1000" preserveAspectRatio="xMidYMid meet" version="1.0"><defs><g/><clipPath id="245949cea4"><path d="M 151.894531 75 L 598.144531 75 L 598.144531 521.25 L 151.894531 521.25 Z M 151.894531 75 " clip-rule="nonzero"/></clipPath></defs><g clip-path="url(#245949cea4)"><path fill="#1a4862" d="M 309.695312 455.828125 L 217.242188 455.828125 L 217.242188 363.375 L 151.894531 298.027344 L 217.242188 232.804688 L 217.242188 140.351562 L 309.695312 140.351562 L 374.917969 75 L 440.269531 140.351562 L 532.722656 140.351562 L 532.722656 232.804688 L 598.070312 298.027344 L 532.722656 363.375 L 532.722656 455.828125 L 440.269531 455.828125 L 374.917969 521.179688 Z M 309.695312 455.828125 " fill-opacity="1" fill-rule="nonzero"/></g><path fill="#ffffff" d="M 316.28125 439.617188 L 233.453125 439.617188 L 233.453125 356.789062 L 174.691406 298.027344 L 233.453125 239.386719 L 233.453125 156.558594 L 316.28125 156.558594 L 374.917969 97.796875 L 433.683594 156.558594 L 516.507812 156.558594 L 516.507812 239.386719 L 575.277344 298.027344 L 516.507812 356.789062 L 516.507812 439.617188 L 433.683594 439.617188 L 374.917969 498.382812 Z M 316.28125 439.617188 " fill-opacity="1" fill-rule="nonzero"/><path fill="#1a4862" d="M 320.714844 429.105469 L 243.964844 429.105469 L 243.964844 352.355469 L 189.636719 298.027344 L 243.964844 243.820312 L 243.964844 167.074219 L 320.714844 167.074219 L 374.917969 112.742188 L 429.25 167.074219 L 506 167.074219 L 506 243.820312 L 560.332031 298.027344 L 506 352.355469 L 506 429.105469 L 429.25 429.105469 L 374.917969 483.4375 Z M 320.714844 429.105469 " fill-opacity="1" fill-rule="nonzero"/><path fill="#ffffff" d="M 326.414062 413.527344 L 257.644531 413.527344 L 257.644531 344.757812 L 209.011719 296.125 L 257.644531 247.621094 L 257.644531 178.851562 L 326.414062 178.851562 L 374.917969 130.21875 L 423.550781 178.851562 L 492.320312 178.851562 L 492.320312 247.621094 L 540.953125 296.125 L 492.320312 344.757812 L 492.320312 413.527344 L 423.550781 413.527344 L 374.917969 462.160156 Z M 326.414062 413.527344 " fill-opacity="1" fill-rule="nonzero"/><path fill="#1a4862" d="M 330.214844 404.28125 L 267.523438 404.28125 L 267.523438 341.589844 L 223.195312 297.265625 L 267.523438 252.941406 L 267.523438 190.25 L 330.214844 190.25 L 374.539062 145.921875 L 418.863281 190.25 L 481.429688 190.25 L 481.429688 252.941406 L 525.753906 297.265625 L 481.429688 341.589844 L 481.429688 404.28125 L 418.863281 404.28125 L 374.539062 448.609375 Z M 330.214844 404.28125 " fill-opacity="1" fill-rule="nonzero"/><path fill="#ffffff" d="M 471.296875 338.046875 L 511.191406 298.027344 L 471.296875 258.132812 L 471.296875 201.773438 L 414.941406 201.773438 L 374.917969 161.878906 L 335.023438 201.773438 L 278.667969 201.773438 L 278.667969 258.132812 L 238.773438 298.027344 L 278.667969 338.046875 L 278.667969 394.402344 L 335.023438 394.402344 L 374.917969 434.296875 L 414.941406 394.402344 L 471.296875 394.402344 Z M 471.296875 338.046875 " fill-opacity="1" fill-rule="nonzero"/><path fill="#1a4862" d="M 354.402344 358.308594 C 350.984375 355.523438 347.691406 355.398438 344.523438 358.4375 C 340.851562 361.855469 337.8125 365.65625 336.039062 370.214844 C 334.011719 375.40625 332.617188 380.726562 331.097656 386.171875 C 330.085938 389.71875 329.324219 393.261719 328.695312 396.050781 C 328.566406 400.230469 330.972656 402.382812 334.011719 401.621094 C 335.023438 401.371094 336.164062 400.609375 336.796875 399.722656 C 341.613281 393.261719 346.550781 386.933594 350.855469 380.21875 C 353.390625 376.164062 355.035156 371.605469 356.933594 367.175781 C 358.203125 363.628906 357.441406 360.84375 354.402344 358.308594 Z M 414.558594 370.214844 C 412.785156 365.65625 409.746094 361.726562 406.074219 358.4375 C 402.90625 355.398438 399.613281 355.523438 396.195312 358.308594 C 393.15625 360.714844 392.394531 363.628906 393.789062 367.046875 C 395.5625 371.480469 397.207031 376.042969 399.742188 380.09375 C 404.046875 386.804688 408.984375 393.136719 413.671875 399.597656 C 414.304688 400.480469 415.445312 401.242188 416.460938 401.496094 C 419.5 402.257812 421.777344 400.101562 421.652344 395.921875 C 421.019531 393.136719 420.257812 389.589844 419.246094 386.042969 C 417.980469 380.851562 416.585938 375.40625 414.558594 370.214844 Z M 442.800781 353.625 C 437.480469 348.050781 433.429688 341.464844 428.617188 335.511719 C 422.410156 327.660156 415.824219 320.0625 409.492188 312.335938 C 408.984375 311.832031 408.605469 311.195312 407.722656 310.183594 C 408.984375 310.054688 409.746094 310.054688 410.503906 310.054688 C 418.230469 310.054688 426.082031 310.691406 433.808594 310.054688 C 442.929688 309.296875 451.917969 307.394531 460.914062 305.753906 C 464.457031 305.117188 468.003906 304.105469 471.425781 303.21875 C 473.324219 302.710938 474.972656 301.699219 475.855469 299.925781 C 476.234375 299.292969 476.363281 298.65625 476.234375 298.277344 C 476.363281 297.898438 476.234375 297.265625 475.855469 296.632812 C 474.972656 294.734375 473.324219 293.71875 471.425781 293.339844 C 467.875 292.453125 464.332031 291.4375 460.785156 290.808594 C 451.667969 289.285156 442.675781 287.386719 433.429688 286.5 C 425.703125 285.867188 417.722656 286.375 410 286.5 C 409.242188 286.5 408.480469 286.375 407.214844 286.375 C 408.101562 285.359375 408.480469 284.726562 408.984375 284.21875 C 415.445312 276.496094 421.902344 268.898438 428.238281 261.042969 C 433.050781 255.09375 437.101562 248.503906 442.546875 242.933594 C 445.714844 239.640625 448.628906 235.96875 451.160156 232.167969 C 453.4375 228.875 452.679688 225.457031 450.019531 222.796875 C 447.488281 220.265625 443.941406 219.628906 440.777344 221.53125 C 438.496094 222.925781 436.46875 224.695312 434.316406 226.34375 C 429 230.777344 423.804688 235.464844 418.230469 239.640625 C 407.847656 247.367188 397.464844 255.09375 388.214844 264.210938 C 387.835938 264.589844 387.328125 264.96875 386.824219 265.222656 C 386.695312 265.097656 386.445312 265.097656 386.316406 264.96875 L 386.316406 262.5625 C 386.445312 260.410156 386.695312 258.257812 386.824219 256.230469 C 387.078125 247.621094 386.445312 239.132812 385.304688 230.523438 C 384.039062 220.390625 381.628906 210.640625 379.097656 200.886719 C 378.71875 199.367188 377.199219 197.972656 375.804688 196.960938 C 375.425781 196.582031 374.917969 196.582031 374.667969 196.582031 C 374.285156 196.582031 373.90625 196.707031 373.527344 196.960938 C 372.132812 197.972656 370.613281 199.367188 370.230469 200.886719 C 367.699219 210.640625 365.421875 220.515625 364.152344 230.523438 C 363.011719 239.132812 362.507812 247.621094 362.632812 256.230469 C 362.632812 258.382812 363.011719 260.539062 363.140625 262.5625 L 363.140625 264.96875 C 363.011719 265.097656 362.761719 265.097656 362.632812 265.222656 C 362.128906 264.84375 361.621094 264.589844 361.242188 264.210938 C 351.996094 255.09375 341.734375 247.492188 331.476562 239.640625 C 325.90625 235.464844 320.839844 230.777344 315.519531 226.34375 C 313.496094 224.695312 311.46875 222.925781 309.1875 221.53125 C 306.023438 219.628906 302.476562 220.265625 299.941406 222.796875 C 297.28125 225.457031 296.652344 228.875 298.804688 232.167969 C 301.335938 235.96875 304.121094 239.640625 307.289062 242.933594 C 312.609375 248.503906 316.660156 255.09375 321.476562 261.042969 C 327.679688 268.898438 334.265625 276.496094 340.597656 284.21875 C 341.105469 284.726562 341.484375 285.359375 342.371094 286.375 C 341.105469 286.5 340.34375 286.5 339.585938 286.5 C 331.859375 286.5 324.007812 285.867188 316.28125 286.5 C 307.160156 287.257812 298.171875 289.160156 289.179688 290.808594 C 285.632812 291.4375 282.085938 292.453125 278.667969 293.339844 C 276.765625 293.847656 275.121094 294.859375 274.234375 296.632812 C 273.855469 297.265625 273.726562 297.898438 273.855469 298.277344 C 273.726562 298.65625 273.855469 299.292969 274.234375 299.925781 C 275.121094 301.824219 276.765625 302.835938 278.667969 303.21875 C 282.214844 304.105469 285.761719 305.117188 289.304688 305.753906 C 298.421875 307.273438 307.417969 309.171875 316.660156 310.054688 C 324.386719 310.691406 332.367188 310.183594 340.09375 310.054688 C 340.851562 310.054688 341.613281 310.183594 342.875 310.183594 C 341.992188 311.195312 341.613281 311.832031 341.105469 312.335938 C 334.644531 320.0625 328.1875 327.660156 321.855469 335.511719 C 317.039062 341.464844 312.988281 348.050781 307.542969 353.625 C 304.378906 356.917969 301.460938 360.589844 298.929688 364.386719 C 296.652344 367.683594 297.410156 371.101562 300.070312 373.761719 C 302.601562 376.292969 306.148438 376.925781 309.316406 375.027344 C 311.597656 373.632812 313.621094 371.863281 315.777344 370.214844 C 321.09375 365.78125 326.285156 361.097656 331.859375 356.917969 C 342.242188 349.191406 352.628906 341.464844 361.875 332.347656 C 362.253906 331.96875 362.761719 331.589844 363.269531 331.332031 C 363.394531 331.460938 363.648438 331.460938 363.773438 331.589844 L 363.773438 333.992188 C 363.648438 336.148438 363.394531 338.300781 363.269531 340.328125 C 363.011719 348.9375 363.648438 357.425781 364.789062 366.035156 C 366.050781 376.164062 368.460938 385.917969 370.992188 395.671875 C 371.371094 397.191406 372.890625 398.582031 374.285156 399.597656 C 374.667969 399.976562 375.171875 399.976562 375.425781 399.976562 C 375.804688 399.976562 376.1875 399.851562 376.566406 399.597656 C 377.957031 398.582031 379.476562 397.191406 379.859375 395.671875 C 382.390625 385.917969 384.667969 376.042969 385.9375 366.035156 C 387.078125 357.425781 387.585938 348.9375 387.457031 340.328125 C 387.457031 338.171875 387.078125 336.019531 386.949219 333.992188 L 386.949219 331.589844 C 387.078125 331.460938 387.328125 331.460938 387.457031 331.332031 C 387.964844 331.710938 388.46875 331.96875 388.847656 332.347656 C 398.09375 341.464844 408.355469 349.066406 418.613281 356.917969 C 424.183594 361.097656 429.25 365.78125 434.570312 370.214844 C 436.597656 371.863281 438.621094 373.632812 440.902344 375.027344 C 444.066406 376.925781 447.617188 376.292969 450.148438 373.761719 C 452.808594 371.101562 453.4375 367.683594 451.285156 364.386719 C 448.878906 360.589844 445.96875 356.917969 442.800781 353.625 Z M 316.660156 320.949219 C 313.496094 316.515625 311.976562 315.121094 307.542969 316.769531 C 302.730469 318.414062 297.789062 320.3125 293.484375 323.101562 C 286.644531 327.535156 280.1875 332.601562 273.726562 337.539062 C 271.953125 338.929688 271.703125 340.832031 272.460938 342.730469 C 273.347656 344.628906 274.867188 345.390625 276.765625 345.265625 C 277.273438 345.265625 277.90625 345.265625 278.414062 345.136719 C 283.859375 343.746094 289.304688 342.351562 294.878906 341.085938 C 302.601562 339.058594 309.441406 335.511719 315.140625 329.6875 C 317.675781 326.773438 318.558594 323.480469 316.660156 320.949219 Z M 476.363281 337.539062 C 469.902344 332.601562 463.574219 327.535156 456.734375 323.101562 C 452.425781 320.3125 447.617188 318.414062 442.800781 316.769531 C 438.367188 315.25 436.847656 316.644531 433.683594 320.949219 C 431.78125 323.480469 432.667969 326.773438 435.328125 329.5625 C 440.902344 335.386719 447.738281 338.929688 455.339844 340.957031 C 460.785156 342.351562 466.230469 343.746094 471.550781 345.011719 C 472.054688 345.136719 472.691406 345.136719 473.195312 345.136719 C 475.222656 345.136719 476.617188 344.507812 477.503906 342.605469 C 478.390625 340.832031 478.136719 338.929688 476.363281 337.539062 Z M 433.300781 275.230469 C 436.46875 279.660156 437.988281 281.054688 442.421875 279.410156 C 447.234375 277.761719 452.175781 275.859375 456.480469 273.078125 C 463.316406 268.640625 469.777344 263.578125 476.234375 258.640625 C 478.011719 257.246094 478.261719 255.34375 477.503906 253.445312 C 476.617188 251.546875 475.09375 250.785156 473.195312 250.914062 C 472.691406 250.914062 472.054688 250.914062 471.550781 251.039062 C 466.105469 252.433594 460.65625 253.824219 455.085938 255.09375 C 447.359375 257.121094 440.519531 260.664062 434.820312 266.492188 C 432.289062 269.402344 431.402344 272.695312 433.300781 275.230469 Z M 273.601562 258.640625 C 280.0625 263.578125 286.390625 268.640625 293.230469 273.078125 C 297.539062 275.859375 302.351562 277.761719 307.160156 279.410156 C 311.597656 280.929688 313.117188 279.535156 316.28125 275.230469 C 318.179688 272.695312 317.296875 269.402344 314.636719 266.617188 C 309.0625 260.792969 302.222656 257.246094 294.625 255.21875 C 289.179688 253.824219 283.734375 252.433594 278.414062 251.164062 C 277.90625 251.039062 277.273438 251.039062 276.765625 251.039062 C 274.742188 251.039062 273.347656 251.671875 272.460938 253.574219 C 271.574219 255.34375 271.828125 257.246094 273.601562 258.640625 Z M 335.40625 225.964844 C 337.175781 230.523438 340.214844 234.449219 343.890625 237.742188 C 347.054688 240.78125 350.351562 240.65625 353.769531 237.867188 C 356.808594 235.464844 357.570312 232.546875 356.175781 229.128906 C 354.402344 224.695312 352.753906 220.136719 350.222656 216.085938 C 345.914062 209.371094 340.976562 203.039062 336.292969 196.582031 C 335.65625 195.695312 334.515625 194.933594 333.503906 194.679688 C 330.464844 193.921875 328.1875 196.074219 328.3125 200.253906 C 328.945312 203.039062 329.707031 206.585938 330.71875 210.132812 C 331.984375 215.324219 333.378906 220.769531 335.40625 225.964844 Z M 395.5625 237.867188 C 398.984375 240.65625 402.273438 240.78125 405.441406 237.742188 C 409.113281 234.324219 412.152344 230.523438 413.925781 225.964844 C 415.953125 220.769531 417.34375 215.449219 418.863281 210.007812 C 419.878906 206.460938 420.640625 202.914062 421.273438 200.128906 C 421.398438 195.949219 418.992188 193.792969 415.953125 194.554688 C 414.941406 194.808594 413.800781 195.570312 413.164062 196.453125 C 408.355469 202.914062 403.414062 209.246094 399.109375 215.957031 C 396.574219 220.011719 394.929688 224.570312 393.027344 229.003906 C 391.765625 232.546875 392.523438 235.335938 395.5625 237.867188 Z M 395.5625 237.867188 " fill-opacity="1" fill-rule="nonzero"/><g fill="#1a4862" fill-opacity="1"><g transform="translate(51.716353, 646.353733)"><g><path d="M 7.46875 0 L 7.46875 -86.234375 L 34.375 -86.234375 L 48.390625 -46.53125 C 48.960938 -44.675781 49.632812 -42.3125 50.40625 -39.4375 C 51.175781 -36.5625 51.957031 -33.484375 52.75 -30.203125 C 53.539062 -26.929688 54.273438 -23.757812 54.953125 -20.6875 C 55.628906 -17.625 56.195312 -14.972656 56.65625 -12.734375 L 52.953125 -12.734375 C 53.421875 -14.929688 53.988281 -17.550781 54.65625 -20.59375 C 55.332031 -23.644531 56.066406 -26.820312 56.859375 -30.125 C 57.648438 -33.425781 58.421875 -36.519531 59.171875 -39.40625 C 59.929688 -42.300781 60.617188 -44.675781 61.234375 -46.53125 L 75.015625 -86.234375 L 101.984375 -86.234375 L 101.984375 0 L 84.265625 0 L 84.265625 -40.75 C 84.265625 -42.632812 84.289062 -44.96875 84.34375 -47.75 C 84.40625 -50.53125 84.484375 -53.519531 84.578125 -56.71875 C 84.679688 -59.914062 84.769531 -63.144531 84.84375 -66.40625 C 84.925781 -69.664062 84.984375 -72.742188 85.015625 -75.640625 L 86.359375 -75.640625 C 85.578125 -72.484375 84.734375 -69.222656 83.828125 -65.859375 C 82.921875 -62.503906 82.015625 -59.234375 81.109375 -56.046875 C 80.203125 -52.867188 79.351562 -49.957031 78.5625 -47.3125 C 77.769531 -44.664062 77.085938 -42.476562 76.515625 -40.75 L 62.15625 0 L 47.34375 0 L 32.8125 -40.75 C 32.195312 -42.476562 31.492188 -44.65625 30.703125 -47.28125 C 29.910156 -49.90625 29.050781 -52.800781 28.125 -55.96875 C 27.195312 -59.132812 26.269531 -62.394531 25.34375 -65.75 C 24.414062 -69.101562 23.53125 -72.398438 22.6875 -75.640625 L 24.3125 -75.640625 C 24.34375 -72.867188 24.394531 -69.859375 24.46875 -66.609375 C 24.550781 -63.367188 24.628906 -60.128906 24.703125 -56.890625 C 24.785156 -53.648438 24.863281 -50.628906 24.9375 -47.828125 C 25.019531 -45.035156 25.0625 -42.675781 25.0625 -40.75 L 25.0625 0 Z M 7.46875 0 "/></g></g></g><g fill="#1a4862" fill-opacity="1"><g transform="translate(170.291969, 646.353733)"><g><path d="M 7.46875 0 L 7.46875 -86.234375 L 41.328125 -86.234375 C 47.847656 -86.234375 53.421875 -85.078125 58.046875 -82.765625 C 62.679688 -80.453125 66.222656 -77.191406 68.671875 -72.984375 C 71.117188 -68.773438 72.34375 -63.816406 72.34375 -58.109375 C 72.34375 -52.429688 71.085938 -47.53125 68.578125 -43.40625 C 66.078125 -39.28125 62.472656 -36.113281 57.765625 -33.90625 C 53.054688 -31.707031 47.382812 -30.609375 40.75 -30.609375 L 18 -30.609375 L 18 -44.90625 L 38.609375 -44.90625 C 42.078125 -44.90625 44.96875 -45.414062 47.28125 -46.4375 C 49.59375 -47.46875 51.335938 -48.96875 52.515625 -50.9375 C 53.691406 -52.90625 54.28125 -55.296875 54.28125 -58.109375 C 54.28125 -61.003906 53.691406 -63.441406 52.515625 -65.421875 C 51.335938 -67.410156 49.59375 -68.9375 47.28125 -70 C 44.96875 -71.0625 42.054688 -71.59375 38.546875 -71.59375 L 25.171875 -71.59375 L 25.171875 0 Z M 55.671875 0 L 34.953125 -39.1875 L 54.0625 -39.1875 L 75.1875 0 Z M 55.671875 0 "/></g></g></g><g fill="#1a4862" fill-opacity="1"><g transform="translate(257.092289, 646.353733)"><g><path d="M 18.640625 1.09375 C 15.816406 1.09375 13.441406 0.140625 11.515625 -1.765625 C 9.585938 -3.671875 8.625 -6.035156 8.625 -8.859375 C 8.625 -11.628906 9.585938 -13.96875 11.515625 -15.875 C 13.441406 -17.789062 15.816406 -18.75 18.640625 -18.75 C 21.410156 -18.75 23.757812 -17.789062 25.6875 -15.875 C 27.625 -13.96875 28.59375 -11.628906 28.59375 -8.859375 C 28.59375 -6.035156 27.625 -3.671875 25.6875 -1.765625 C 23.757812 0.140625 21.410156 1.09375 18.640625 1.09375 Z M 18.640625 1.09375 "/></g></g></g><g fill="#1a4862" fill-opacity="1"><g transform="translate(298.226381, 646.353733)"><g><path d="M 45.265625 1.21875 C 37.578125 1.21875 30.695312 -0.535156 24.625 -4.046875 C 18.550781 -7.554688 13.765625 -12.609375 10.265625 -19.203125 C 6.773438 -25.804688 5.03125 -33.757812 5.03125 -43.0625 C 5.03125 -52.394531 6.785156 -60.367188 10.296875 -66.984375 C 13.804688 -73.609375 18.609375 -78.675781 24.703125 -82.1875 C 30.804688 -85.695312 37.660156 -87.453125 45.265625 -87.453125 C 50.203125 -87.453125 54.800781 -86.753906 59.0625 -85.359375 C 63.320312 -83.972656 67.09375 -81.945312 70.375 -79.28125 C 73.65625 -76.625 76.347656 -73.382812 78.453125 -69.5625 C 80.554688 -65.75 81.9375 -61.410156 82.59375 -56.546875 L 64.703125 -56.546875 C 64.273438 -58.941406 63.503906 -61.082031 62.390625 -62.96875 C 61.273438 -64.863281 59.882812 -66.460938 58.21875 -67.765625 C 56.5625 -69.078125 54.671875 -70.070312 52.546875 -70.75 C 50.429688 -71.425781 48.117188 -71.765625 45.609375 -71.765625 C 41.054688 -71.765625 37.070312 -70.625 33.65625 -68.34375 C 30.238281 -66.070312 27.601562 -62.800781 25.75 -58.53125 C 23.90625 -54.269531 22.984375 -49.113281 22.984375 -43.0625 C 22.984375 -36.925781 23.914062 -31.722656 25.78125 -27.453125 C 27.65625 -23.191406 30.289062 -19.960938 33.6875 -17.765625 C 37.082031 -15.566406 41.054688 -14.46875 45.609375 -14.46875 C 48.078125 -14.46875 50.367188 -14.8125 52.484375 -15.5 C 54.609375 -16.195312 56.507812 -17.191406 58.1875 -18.484375 C 59.875 -19.785156 61.273438 -21.378906 62.390625 -23.265625 C 63.503906 -25.160156 64.296875 -27.300781 64.765625 -29.6875 L 82.640625 -29.6875 C 82.109375 -25.476562 80.863281 -21.519531 78.90625 -17.8125 C 76.957031 -14.113281 74.375 -10.828125 71.15625 -7.953125 C 67.9375 -5.078125 64.15625 -2.828125 59.8125 -1.203125 C 55.46875 0.410156 50.617188 1.21875 45.265625 1.21875 Z M 45.265625 1.21875 "/></g></g></g><g fill="#1a4862" fill-opacity="1"><g transform="translate(394.692426, 646.353733)"><g><path d="M 7.46875 0 L 7.46875 -86.234375 L 25.171875 -86.234375 L 25.171875 -14.8125 L 62.859375 -14.8125 L 62.859375 0 Z M 7.46875 0 "/></g></g></g><g fill="#1a4862" fill-opacity="1"><g transform="translate(470.611566, 646.353733)"><g><path d="M 25.171875 -86.234375 L 25.171875 0 L 7.46875 0 L 7.46875 -86.234375 Z M 25.171875 -86.234375 "/></g></g></g><g fill="#1a4862" fill-opacity="1"><g transform="translate(512.440314, 646.353733)"><g><path d="M 7.46875 0 L 7.46875 -86.234375 L 26.96875 -86.234375 L 54.34375 -42.484375 C 55.582031 -40.429688 56.90625 -38.140625 58.3125 -35.609375 C 59.71875 -33.085938 61.160156 -30.285156 62.640625 -27.203125 C 64.128906 -24.117188 65.609375 -20.757812 67.078125 -17.125 L 65.171875 -16.09375 C 64.941406 -19.175781 64.726562 -22.5 64.53125 -26.0625 C 64.34375 -29.632812 64.1875 -33.0625 64.0625 -36.34375 C 63.945312 -39.625 63.890625 -42.363281 63.890625 -44.5625 L 63.890625 -86.234375 L 81.890625 -86.234375 L 81.890625 0 L 62.328125 0 L 37.5 -39.640625 C 35.84375 -42.347656 34.234375 -45.078125 32.671875 -47.828125 C 31.109375 -50.585938 29.46875 -53.664062 27.75 -57.0625 C 26.03125 -60.457031 24.035156 -64.414062 21.765625 -68.9375 L 24.1875 -69.390625 C 24.425781 -65.179688 24.648438 -61.175781 24.859375 -57.375 C 25.066406 -53.582031 25.226562 -50.160156 25.34375 -47.109375 C 25.46875 -44.066406 25.53125 -41.597656 25.53125 -39.703125 L 25.53125 0 Z M 7.46875 0 "/></g></g></g><g fill="#1a4862" fill-opacity="1"><g transform="translate(610.9321, 646.353733)"><g><path d="M 45.265625 1.21875 C 37.578125 1.21875 30.695312 -0.535156 24.625 -4.046875 C 18.550781 -7.554688 13.765625 -12.609375 10.265625 -19.203125 C 6.773438 -25.804688 5.03125 -33.757812 5.03125 -43.0625 C 5.03125 -52.394531 6.785156 -60.367188 10.296875 -66.984375 C 13.804688 -73.609375 18.609375 -78.675781 24.703125 -82.1875 C 30.804688 -85.695312 37.660156 -87.453125 45.265625 -87.453125 C 50.203125 -87.453125 54.800781 -86.753906 59.0625 -85.359375 C 63.320312 -83.972656 67.09375 -81.945312 70.375 -79.28125 C 73.65625 -76.625 76.347656 -73.382812 78.453125 -69.5625 C 80.554688 -65.75 81.9375 -61.410156 82.59375 -56.546875 L 64.703125 -56.546875 C 64.273438 -58.941406 63.503906 -61.082031 62.390625 -62.96875 C 61.273438 -64.863281 59.882812 -66.460938 58.21875 -67.765625 C 56.5625 -69.078125 54.671875 -70.070312 52.546875 -70.75 C 50.429688 -71.425781 48.117188 -71.765625 45.609375 -71.765625 C 41.054688 -71.765625 37.070312 -70.625 33.65625 -68.34375 C 30.238281 -66.070312 27.601562 -62.800781 25.75 -58.53125 C 23.90625 -54.269531 22.984375 -49.113281 22.984375 -43.0625 C 22.984375 -36.925781 23.914062 -31.722656 25.78125 -27.453125 C 27.65625 -23.191406 30.289062 -19.960938 33.6875 -17.765625 C 37.082031 -15.566406 41.054688 -14.46875 45.609375 -14.46875 C 48.078125 -14.46875 50.367188 -14.8125 52.484375 -15.5 C 54.609375 -16.195312 56.507812 -17.191406 58.1875 -18.484375 C 59.875 -19.785156 61.273438 -21.378906 62.390625 -23.265625 C 63.503906 -25.160156 64.296875 -27.300781 64.765625 -29.6875 L 82.640625 -29.6875 C 82.109375 -25.476562 80.863281 -21.519531 78.90625 -17.8125 C 76.957031 -14.113281 74.375 -10.828125 71.15625 -7.953125 C 67.9375 -5.078125 64.15625 -2.828125 59.8125 -1.203125 C 55.46875 0.410156 50.617188 1.21875 45.265625 1.21875 Z M 45.265625 1.21875 "/></g></g></g></svg>