<svg xmlns="http://www.w3.org/2000/svg" xmlns:xlink="http://www.w3.org/1999/xlink" width="512" zoomAndPan="magnify" viewBox="0 0 384 383.999986" height="512" preserveAspectRatio="xMidYMid meet" version="1.0"><path fill="#1a4862" d="M 135.804688 327.738281 L 56.238281 327.738281 L 56.238281 248.175781 L 0 191.933594 L 56.238281 135.804688 L 56.238281 56.238281 L 135.804688 56.238281 L 191.933594 0 L 248.175781 56.238281 L 327.738281 56.238281 L 327.738281 135.804688 L 383.980469 191.933594 L 327.738281 248.175781 L 327.738281 327.738281 L 248.175781 327.738281 L 191.933594 383.980469 Z M 135.804688 327.738281 " fill-opacity="1" fill-rule="nonzero"/><path fill="#ffffff" d="M 141.46875 313.785156 L 70.191406 313.785156 L 70.191406 242.507812 L 19.617188 191.933594 L 70.191406 141.46875 L 70.191406 70.191406 L 141.46875 70.191406 L 191.933594 19.617188 L 242.507812 70.191406 L 313.785156 70.191406 L 313.785156 141.46875 L 364.359375 191.933594 L 313.785156 242.507812 L 313.785156 313.785156 L 242.507812 313.785156 L 191.933594 364.359375 Z M 141.46875 313.785156 " fill-opacity="1" fill-rule="nonzero"/><path fill="#1a4862" d="M 145.285156 304.742188 L 79.238281 304.742188 L 79.238281 238.691406 L 32.480469 191.933594 L 79.238281 145.285156 L 79.238281 79.238281 L 145.285156 79.238281 L 191.933594 32.480469 L 238.691406 79.238281 L 304.742188 79.238281 L 304.742188 145.285156 L 351.5 191.933594 L 304.742188 238.691406 L 304.742188 304.742188 L 238.691406 304.742188 L 191.933594 351.5 Z M 145.285156 304.742188 " fill-opacity="1" fill-rule="nonzero"/><path fill="#ffffff" d="M 150.191406 291.335938 L 91.007812 291.335938 L 91.007812 232.152344 L 49.15625 190.300781 L 91.007812 148.558594 L 91.007812 89.375 L 150.191406 89.375 L 191.933594 47.519531 L 233.789062 89.375 L 292.96875 89.375 L 292.96875 148.558594 L 334.824219 190.300781 L 292.96875 232.152344 L 292.96875 291.335938 L 233.789062 291.335938 L 191.933594 333.1875 Z M 150.191406 291.335938 " fill-opacity="1" fill-rule="nonzero"/><path fill="#1a4862" d="M 153.460938 283.378906 L 99.511719 283.378906 L 99.511719 229.425781 L 61.363281 191.28125 L 99.511719 153.132812 L 99.511719 99.183594 L 153.460938 99.183594 L 191.609375 61.035156 L 229.753906 99.183594 L 283.597656 99.183594 L 283.597656 153.132812 L 321.742188 191.28125 L 283.597656 229.425781 L 283.597656 283.378906 L 229.753906 283.378906 L 191.609375 321.527344 Z M 153.460938 283.378906 " fill-opacity="1" fill-rule="nonzero"/><path fill="#ffffff" d="M 274.875 226.375 L 309.207031 191.933594 L 274.875 157.601562 L 274.875 109.101562 L 226.375 109.101562 L 191.933594 74.765625 L 157.601562 109.101562 L 109.101562 109.101562 L 109.101562 157.601562 L 74.765625 191.933594 L 109.101562 226.375 L 109.101562 274.875 L 157.601562 274.875 L 191.933594 309.207031 L 226.375 274.875 L 274.875 274.875 Z M 274.875 226.375 " fill-opacity="1" fill-rule="nonzero"/><path fill="#1a4862" d="M 174.277344 243.8125 C 171.335938 241.417969 168.503906 241.308594 165.777344 243.921875 C 162.617188 246.867188 160 250.136719 158.472656 254.058594 C 156.730469 258.527344 155.53125 263.105469 154.222656 267.792969 C 153.351562 270.84375 152.699219 273.894531 152.152344 276.292969 C 152.042969 279.890625 154.117188 281.742188 156.730469 281.089844 C 157.601562 280.871094 158.582031 280.21875 159.128906 279.453125 C 163.269531 273.894531 167.519531 268.445312 171.226562 262.671875 C 173.40625 259.183594 174.820312 255.257812 176.457031 251.445312 C 177.546875 248.390625 176.894531 245.996094 174.277344 243.8125 Z M 226.050781 254.058594 C 224.523438 250.136719 221.90625 246.757812 218.746094 243.921875 C 216.019531 241.308594 213.1875 241.417969 210.246094 243.8125 C 207.628906 245.886719 206.976562 248.390625 208.171875 251.335938 C 209.699219 255.152344 211.117188 259.074219 213.296875 262.5625 C 217 268.335938 221.253906 273.789062 225.285156 279.347656 C 225.832031 280.109375 226.8125 280.761719 227.683594 280.980469 C 230.300781 281.636719 232.261719 279.78125 232.152344 276.183594 C 231.609375 273.789062 230.953125 270.734375 230.082031 267.683594 C 228.992188 263.214844 227.792969 258.527344 226.050781 254.058594 Z M 250.351562 239.78125 C 245.777344 234.984375 242.289062 229.320312 238.148438 224.195312 C 232.804688 217.4375 227.136719 210.898438 221.6875 204.25 C 221.253906 203.816406 220.925781 203.269531 220.164062 202.398438 C 221.253906 202.289062 221.90625 202.289062 222.558594 202.289062 C 229.210938 202.289062 235.964844 202.835938 242.617188 202.289062 C 250.464844 201.632812 258.199219 200 265.941406 198.582031 C 268.992188 198.039062 272.042969 197.167969 274.988281 196.402344 C 276.621094 195.96875 278.039062 195.09375 278.800781 193.570312 C 279.128906 193.023438 279.238281 192.480469 279.128906 192.152344 C 279.238281 191.824219 279.128906 191.28125 278.800781 190.738281 C 278.039062 189.101562 276.621094 188.226562 274.988281 187.902344 C 271.933594 187.140625 268.882812 186.265625 265.832031 185.722656 C 257.984375 184.414062 250.246094 182.777344 242.289062 182.015625 C 235.640625 181.472656 228.773438 181.910156 222.125 182.015625 C 221.472656 182.015625 220.816406 181.910156 219.726562 181.910156 C 220.492188 181.035156 220.816406 180.492188 221.253906 180.054688 C 226.8125 173.40625 232.371094 166.867188 237.820312 160.109375 C 241.960938 154.988281 245.449219 149.316406 250.136719 144.523438 C 252.863281 141.691406 255.367188 138.527344 257.546875 135.257812 C 259.507812 132.425781 258.855469 129.480469 256.566406 127.195312 C 254.386719 125.015625 251.335938 124.46875 248.609375 126.101562 C 246.648438 127.304688 244.90625 128.828125 243.050781 130.246094 C 238.476562 134.058594 234.003906 138.09375 229.210938 141.691406 C 220.273438 148.335938 211.335938 154.988281 203.378906 162.832031 C 203.050781 163.160156 202.613281 163.488281 202.179688 163.703125 C 202.070312 163.597656 201.855469 163.597656 201.742188 163.488281 L 201.742188 161.414062 C 201.855469 159.5625 202.070312 157.710938 202.179688 155.96875 C 202.398438 148.558594 201.855469 141.253906 200.871094 133.84375 C 199.78125 125.121094 197.710938 116.730469 195.53125 108.339844 C 195.203125 107.03125 193.894531 105.832031 192.699219 104.960938 C 192.371094 104.632812 191.933594 104.632812 191.71875 104.632812 C 191.390625 104.632812 191.0625 104.742188 190.738281 104.960938 C 189.535156 105.832031 188.226562 107.03125 187.902344 108.339844 C 185.722656 116.730469 183.761719 125.230469 182.667969 133.84375 C 181.6875 141.253906 181.253906 148.558594 181.363281 155.96875 C 181.363281 157.820312 181.6875 159.675781 181.796875 161.414062 L 181.796875 163.488281 C 181.6875 163.597656 181.472656 163.597656 181.363281 163.703125 C 180.925781 163.378906 180.492188 163.160156 180.164062 162.832031 C 172.207031 154.988281 163.378906 148.445312 154.550781 141.691406 C 149.753906 138.09375 145.394531 134.058594 140.816406 130.246094 C 139.074219 128.828125 137.328125 127.304688 135.367188 126.101562 C 132.640625 124.46875 129.59375 125.015625 127.410156 127.195312 C 125.121094 129.480469 124.578125 132.425781 126.429688 135.257812 C 128.609375 138.527344 131.007812 141.691406 133.734375 144.523438 C 138.3125 149.316406 141.796875 154.988281 145.941406 160.109375 C 151.28125 166.867188 156.949219 173.40625 162.398438 180.054688 C 162.832031 180.492188 163.160156 181.035156 163.925781 181.910156 C 162.832031 182.015625 162.179688 182.015625 161.527344 182.015625 C 154.875 182.015625 148.121094 181.472656 141.46875 182.015625 C 133.625 182.667969 125.886719 184.304688 118.148438 185.722656 C 115.09375 186.265625 112.042969 187.140625 109.101562 187.902344 C 107.464844 188.335938 106.050781 189.207031 105.285156 190.738281 C 104.960938 191.28125 104.847656 191.824219 104.960938 192.152344 C 104.847656 192.480469 104.960938 193.023438 105.285156 193.570312 C 106.050781 195.203125 107.464844 196.074219 109.101562 196.402344 C 112.152344 197.167969 115.207031 198.039062 118.253906 198.582031 C 126.101562 199.890625 133.84375 201.527344 141.796875 202.289062 C 148.445312 202.835938 155.3125 202.398438 161.960938 202.289062 C 162.617188 202.289062 163.269531 202.398438 164.359375 202.398438 C 163.597656 203.269531 163.269531 203.816406 162.832031 204.25 C 157.273438 210.898438 151.714844 217.4375 146.269531 224.195312 C 142.125 229.320312 138.636719 234.984375 133.949219 239.78125 C 131.226562 242.617188 128.71875 245.777344 126.539062 249.046875 C 124.578125 251.882812 125.230469 254.824219 127.519531 257.113281 C 129.699219 259.292969 132.753906 259.835938 135.476562 258.199219 C 137.441406 257.003906 139.183594 255.476562 141.035156 254.058594 C 145.613281 250.246094 150.082031 246.210938 154.875 242.617188 C 163.816406 235.964844 172.753906 229.320312 180.707031 221.472656 C 181.035156 221.144531 181.472656 220.816406 181.910156 220.597656 C 182.015625 220.707031 182.234375 220.707031 182.34375 220.816406 L 182.34375 222.886719 C 182.234375 224.742188 182.015625 226.59375 181.910156 228.339844 C 181.6875 235.75 182.234375 243.050781 183.214844 250.464844 C 184.304688 259.183594 186.375 267.574219 188.554688 275.96875 C 188.882812 277.273438 190.191406 278.472656 191.390625 279.347656 C 191.71875 279.675781 192.152344 279.675781 192.371094 279.675781 C 192.699219 279.675781 193.023438 279.5625 193.351562 279.347656 C 194.550781 278.472656 195.859375 277.273438 196.183594 275.96875 C 198.363281 267.574219 200.324219 259.074219 201.417969 250.464844 C 202.398438 243.050781 202.835938 235.75 202.726562 228.339844 C 202.726562 226.484375 202.398438 224.632812 202.289062 222.886719 L 202.289062 220.816406 C 202.398438 220.707031 202.613281 220.707031 202.726562 220.597656 C 203.160156 220.925781 203.597656 221.144531 203.921875 221.472656 C 211.878906 229.320312 220.707031 235.859375 229.535156 242.617188 C 234.332031 246.210938 238.691406 250.246094 243.269531 254.058594 C 245.015625 255.476562 246.757812 257.003906 248.71875 258.199219 C 251.445312 259.835938 254.496094 259.292969 256.675781 257.113281 C 258.964844 254.824219 259.507812 251.882812 257.65625 249.046875 C 255.585938 245.777344 253.078125 242.617188 250.351562 239.78125 Z M 141.796875 211.664062 C 139.074219 207.847656 137.765625 206.648438 133.949219 208.066406 C 129.808594 209.480469 125.558594 211.117188 121.851562 213.515625 C 115.964844 217.328125 110.40625 221.6875 104.847656 225.941406 C 103.324219 227.136719 103.105469 228.773438 103.761719 230.40625 C 104.523438 232.042969 105.832031 232.695312 107.464844 232.589844 C 107.902344 232.589844 108.445312 232.589844 108.882812 232.480469 C 113.570312 231.28125 118.253906 230.082031 123.050781 228.992188 C 129.699219 227.246094 135.585938 224.195312 140.488281 219.183594 C 142.671875 216.675781 143.433594 213.84375 141.796875 211.664062 Z M 279.238281 225.941406 C 273.679688 221.6875 268.230469 217.328125 262.34375 213.515625 C 258.636719 211.117188 254.496094 209.480469 250.351562 208.066406 C 246.539062 206.757812 245.230469 207.957031 242.507812 211.664062 C 240.871094 213.84375 241.636719 216.675781 243.921875 219.074219 C 248.71875 224.089844 254.605469 227.136719 261.144531 228.882812 C 265.832031 230.082031 270.519531 231.28125 275.097656 232.371094 C 275.53125 232.480469 276.078125 232.480469 276.511719 232.480469 C 278.257812 232.480469 279.453125 231.933594 280.21875 230.300781 C 280.980469 228.773438 280.761719 227.136719 279.238281 225.941406 Z M 242.179688 172.316406 C 244.90625 176.128906 246.210938 177.332031 250.027344 175.914062 C 254.167969 174.496094 258.421875 172.859375 262.125 170.464844 C 268.011719 166.648438 273.570312 162.289062 279.128906 158.039062 C 280.65625 156.839844 280.871094 155.203125 280.21875 153.570312 C 279.453125 151.933594 278.144531 151.28125 276.511719 151.390625 C 276.078125 151.390625 275.53125 151.390625 275.097656 151.5 C 270.410156 152.699219 265.722656 153.894531 260.925781 154.988281 C 254.277344 156.730469 248.390625 159.78125 243.488281 164.796875 C 241.308594 167.300781 240.542969 170.136719 242.179688 172.316406 Z M 104.742188 158.039062 C 110.300781 162.289062 115.75 166.648438 121.636719 170.464844 C 125.339844 172.859375 129.480469 174.496094 133.625 175.914062 C 137.441406 177.21875 138.746094 176.023438 141.46875 172.316406 C 143.105469 170.136719 142.34375 167.300781 140.054688 164.90625 C 135.257812 159.890625 129.371094 156.839844 122.832031 155.097656 C 118.148438 153.894531 113.460938 152.699219 108.882812 151.605469 C 108.445312 151.5 107.902344 151.5 107.464844 151.5 C 105.722656 151.5 104.523438 152.042969 103.761719 153.679688 C 102.996094 155.203125 103.214844 156.839844 104.742188 158.039062 Z M 157.929688 129.917969 C 159.453125 133.84375 162.070312 137.21875 165.234375 140.054688 C 167.957031 142.671875 170.792969 142.5625 173.734375 140.164062 C 176.351562 138.09375 177.003906 135.585938 175.804688 132.640625 C 174.277344 128.828125 172.859375 124.90625 170.679688 121.417969 C 166.972656 115.640625 162.722656 110.191406 158.691406 104.632812 C 158.144531 103.867188 157.164062 103.214844 156.292969 102.996094 C 153.679688 102.34375 151.714844 104.195312 151.828125 107.792969 C 152.371094 110.191406 153.023438 113.242188 153.894531 116.292969 C 154.988281 120.765625 156.183594 125.449219 157.929688 129.917969 Z M 209.699219 140.164062 C 212.644531 142.5625 215.476562 142.671875 218.203125 140.054688 C 221.363281 137.113281 223.976562 133.84375 225.503906 129.917969 C 227.246094 125.449219 228.445312 120.871094 229.753906 116.1875 C 230.628906 113.132812 231.28125 110.082031 231.824219 107.683594 C 231.933594 104.089844 229.863281 102.234375 227.246094 102.886719 C 226.375 103.105469 225.394531 103.761719 224.847656 104.523438 C 220.707031 110.082031 216.457031 115.53125 212.75 121.308594 C 210.570312 124.792969 209.15625 128.71875 207.519531 132.535156 C 206.429688 135.585938 207.085938 137.984375 209.699219 140.164062 Z M 209.699219 140.164062 " fill-opacity="1" fill-rule="nonzero"/></svg>